<mxfile host="app.diagrams.net" modified="2024-01-24T19:56:46.131Z" agent="Mozilla/5.0 (Windows NT 10.0; Win64; x64) AppleWebKit/537.36 (KHTML, like Gecko) Chrome/120.0.0.0 Safari/537.36" etag="EQuOZpf87Y5EdNE-P9vp" version="22.1.21" type="github">
  <diagram name="Página-1" id="fGRAl5X5gWTbf-EV5XbE">
    <mxGraphModel dx="1395" dy="777" grid="1" gridSize="10" guides="1" tooltips="1" connect="1" arrows="1" fold="1" page="1" pageScale="1" pageWidth="827" pageHeight="1169" math="0" shadow="0">
      <root>
        <mxCell id="0" />
        <mxCell id="1" parent="0" />
        <mxCell id="lYByHxYu82n3mE52OAdD-16" value="" style="edgeStyle=orthogonalEdgeStyle;rounded=0;orthogonalLoop=1;jettySize=auto;html=1;" edge="1" parent="1" source="lYByHxYu82n3mE52OAdD-1" target="lYByHxYu82n3mE52OAdD-12">
          <mxGeometry relative="1" as="geometry" />
        </mxCell>
        <mxCell id="lYByHxYu82n3mE52OAdD-17" value="" style="edgeStyle=orthogonalEdgeStyle;rounded=0;orthogonalLoop=1;jettySize=auto;html=1;entryX=0;entryY=0.5;entryDx=0;entryDy=0;" edge="1" parent="1" source="lYByHxYu82n3mE52OAdD-1" target="lYByHxYu82n3mE52OAdD-26">
          <mxGeometry relative="1" as="geometry">
            <mxPoint x="620" y="270" as="targetPoint" />
            <Array as="points">
              <mxPoint x="630" y="275" />
            </Array>
          </mxGeometry>
        </mxCell>
        <mxCell id="lYByHxYu82n3mE52OAdD-1" value="A lâmpada esta acesa?" style="rhombus;whiteSpace=wrap;html=1;" vertex="1" parent="1">
          <mxGeometry x="309" y="190" width="210" height="170" as="geometry" />
        </mxCell>
        <mxCell id="lYByHxYu82n3mE52OAdD-19" value="" style="edgeStyle=orthogonalEdgeStyle;rounded=0;orthogonalLoop=1;jettySize=auto;html=1;" edge="1" parent="1" source="lYByHxYu82n3mE52OAdD-2" target="lYByHxYu82n3mE52OAdD-1">
          <mxGeometry relative="1" as="geometry" />
        </mxCell>
        <mxCell id="lYByHxYu82n3mE52OAdD-2" value="inicio" style="rounded=1;whiteSpace=wrap;html=1;" vertex="1" parent="1">
          <mxGeometry x="354" y="40" width="120" height="60" as="geometry" />
        </mxCell>
        <mxCell id="lYByHxYu82n3mE52OAdD-6" value="sim" style="text;html=1;strokeColor=none;fillColor=none;align=center;verticalAlign=middle;whiteSpace=wrap;rounded=0;" vertex="1" parent="1">
          <mxGeometry x="540" y="240" width="60" height="30" as="geometry" />
        </mxCell>
        <mxCell id="lYByHxYu82n3mE52OAdD-8" value="" style="endArrow=classic;html=1;rounded=0;" edge="1" parent="1">
          <mxGeometry width="50" height="50" relative="1" as="geometry">
            <mxPoint x="670" y="250" as="sourcePoint" />
            <mxPoint x="414" y="120" as="targetPoint" />
            <Array as="points">
              <mxPoint x="664" y="120" />
            </Array>
          </mxGeometry>
        </mxCell>
        <mxCell id="lYByHxYu82n3mE52OAdD-15" value="" style="edgeStyle=orthogonalEdgeStyle;rounded=0;orthogonalLoop=1;jettySize=auto;html=1;" edge="1" parent="1" source="lYByHxYu82n3mE52OAdD-12" target="lYByHxYu82n3mE52OAdD-14">
          <mxGeometry relative="1" as="geometry">
            <Array as="points">
              <mxPoint x="414" y="580" />
              <mxPoint x="414" y="580" />
            </Array>
          </mxGeometry>
        </mxCell>
        <mxCell id="lYByHxYu82n3mE52OAdD-12" value="Aperte o interruptor" style="whiteSpace=wrap;html=1;aspect=fixed;" vertex="1" parent="1">
          <mxGeometry x="374" y="440" width="80" height="80" as="geometry" />
        </mxCell>
        <mxCell id="lYByHxYu82n3mE52OAdD-27" value="" style="edgeStyle=orthogonalEdgeStyle;rounded=0;orthogonalLoop=1;jettySize=auto;html=1;" edge="1" parent="1" source="lYByHxYu82n3mE52OAdD-14" target="lYByHxYu82n3mE52OAdD-26">
          <mxGeometry relative="1" as="geometry">
            <mxPoint x="430" y="750" as="sourcePoint" />
            <Array as="points">
              <mxPoint x="690" y="680" />
            </Array>
          </mxGeometry>
        </mxCell>
        <mxCell id="lYByHxYu82n3mE52OAdD-33" value="" style="edgeStyle=orthogonalEdgeStyle;rounded=0;orthogonalLoop=1;jettySize=auto;html=1;" edge="1" parent="1" source="lYByHxYu82n3mE52OAdD-14" target="lYByHxYu82n3mE52OAdD-32">
          <mxGeometry relative="1" as="geometry">
            <Array as="points">
              <mxPoint x="414" y="790" />
              <mxPoint x="414" y="790" />
            </Array>
          </mxGeometry>
        </mxCell>
        <mxCell id="lYByHxYu82n3mE52OAdD-14" value="A lâmpada acendeu?" style="rhombus;whiteSpace=wrap;html=1;" vertex="1" parent="1">
          <mxGeometry x="374" y="640" width="80" height="80" as="geometry" />
        </mxCell>
        <mxCell id="lYByHxYu82n3mE52OAdD-26" value="&#xa;&lt;span style=&quot;color: rgb(0, 0, 0); font-family: Helvetica; font-size: 12px; font-style: normal; font-variant-ligatures: normal; font-variant-caps: normal; font-weight: 400; letter-spacing: normal; orphans: 2; text-align: center; text-indent: 0px; text-transform: none; widows: 2; word-spacing: 0px; -webkit-text-stroke-width: 0px; background-color: rgb(251, 251, 251); text-decoration-thickness: initial; text-decoration-style: initial; text-decoration-color: initial; float: none; display: inline !important;&quot;&gt;vá para outro cômodo&lt;/span&gt;&#xa;&#xa;" style="whiteSpace=wrap;html=1;" vertex="1" parent="1">
          <mxGeometry x="640" y="250" width="120" height="40" as="geometry" />
        </mxCell>
        <mxCell id="lYByHxYu82n3mE52OAdD-35" value="" style="edgeStyle=orthogonalEdgeStyle;rounded=0;orthogonalLoop=1;jettySize=auto;html=1;" edge="1" parent="1" source="lYByHxYu82n3mE52OAdD-32" target="lYByHxYu82n3mE52OAdD-34">
          <mxGeometry relative="1" as="geometry" />
        </mxCell>
        <mxCell id="lYByHxYu82n3mE52OAdD-32" value="Encontre uma lampada nova&lt;br&gt;Retire da embalagem&lt;br&gt;retire a lampada velha&lt;br&gt;coloque a lampada nova&lt;br&gt;" style="whiteSpace=wrap;html=1;" vertex="1" parent="1">
          <mxGeometry x="316" y="820" width="196" height="140" as="geometry" />
        </mxCell>
        <mxCell id="lYByHxYu82n3mE52OAdD-34" value="fim" style="whiteSpace=wrap;html=1;" vertex="1" parent="1">
          <mxGeometry x="316" y="1040" width="194" height="20" as="geometry" />
        </mxCell>
        <mxCell id="lYByHxYu82n3mE52OAdD-36" value="" style="endArrow=classic;html=1;rounded=0;exitX=0;exitY=0.5;exitDx=0;exitDy=0;" edge="1" parent="1" source="lYByHxYu82n3mE52OAdD-32">
          <mxGeometry width="50" height="50" relative="1" as="geometry">
            <mxPoint x="250" y="900" as="sourcePoint" />
            <mxPoint x="316" y="140" as="targetPoint" />
            <Array as="points">
              <mxPoint x="120" y="890" />
              <mxPoint x="120" y="140" />
            </Array>
          </mxGeometry>
        </mxCell>
      </root>
    </mxGraphModel>
  </diagram>
</mxfile>
